<?xml version="1.0" encoding="UTF-8"?>
<svg id="Layer_1" data-name="Layer 1" xmlns="http://www.w3.org/2000/svg" viewBox="0 0 32 32">
  <defs>
    <style>
      .cls-1 {
        fill: #1d3962;
      }
    </style>
  </defs>
  <path class="cls-1" d="M20.37,17.79l-3.68-9.33c-.08-.28-.27-.42-.56-.42s-.51.14-.62.42l-4.1,9.45-2.02,5.35-.06.06-2.97,7.61c-.12.28-.32.42-.59.42l-3.86-.06c-.28-.04-.48-.16-.59-.36L13.42,2.46c.44-1.07,4.43-5.2,7.07,3.03l10.16,24.9c.08.36.06.64-.06.86-.12.22-.3.31-.53.27h-4.04c-.28,0-.48-.14-.59-.42"/>
</svg>